<?xml version="1.0" encoding="utf-8"?>
<!-- Generator: Adobe Illustrator 16.0.0, SVG Export Plug-In . SVG Version: 6.00 Build 0)  -->
<!DOCTYPE svg PUBLIC "-//W3C//DTD SVG 1.1//EN" "http://www.w3.org/Graphics/SVG/1.1/DTD/svg11.dtd">
<svg version="1.1" id="Layer_1" xmlns="http://www.w3.org/2000/svg" xmlns:xlink="http://www.w3.org/1999/xlink" x="0px" y="0px"
	 width="64px" height="64px" viewBox="0 0 64 64" enable-background="new 0 0 64 64" xml:space="preserve">
<path fill="none" stroke="#000000" stroke-miterlimit="10" d="M32.5,149"/>
<g>
	<g>
		<path fill="#00C5AC" d="M52.287,5.431c0.009,3.375,0.017,6.75,0.024,10.125c2.553-2.314,5.104-4.629,7.657-6.944
			C57.408,7.552,54.848,6.491,52.287,5.431z"/>
		<path fill="#00C5AC" d="M6.089,8.613c2.546,2.314,5.091,4.628,7.637,6.942c0.015-3.375,0.03-6.75,0.045-10.125
			C11.211,6.491,8.65,7.552,6.089,8.613z"/>
		<path fill="#00C5AC" d="M36.182,23.819c-1.06-0.963-2.119-1.926-3.179-2.89c-1.062,0.963-2.125,1.926-3.187,2.89
			C31.938,23.819,34.061,23.819,36.182,23.819z"/>
		<path fill="#00C5AC" d="M61.287,5.431c-0.01-4.065-4.827-5.771-7.682-3.182c-6.868,6.227-13.734,12.454-20.603,18.68
			c1.06,0.963,2.119,1.926,3.179,2.89h-6.366c1.062-0.963,2.125-1.926,3.187-2.89c-6.852-6.227-13.702-12.454-20.551-18.68
			C9.596-0.349,4.79,1.373,4.771,5.431c-0.035,7.69-0.07,15.38-0.104,23.07C4.666,28.856,4.7,29.188,4.762,29.5h8.802
			c0.065-0.312,0.102-0.645,0.104-1c0.02-4.315,0.039-8.63,0.059-12.945c-2.546-2.314-5.091-4.628-7.637-6.942
			c2.561-1.061,5.122-2.122,7.682-3.183c-0.015,3.375-0.03,6.75-0.045,10.125c5.104,4.64,10.209,9.28,15.312,13.92
			c1.276-0.085,2.578-0.041,3.881,0.025h4.016c5.125-4.647,10.251-9.296,15.377-13.943c-0.008-3.375-0.016-6.75-0.024-10.125
			c2.561,1.06,5.121,2.121,7.682,3.182c-2.553,2.315-5.104,4.629-7.657,6.944c0.011,4.353,0.021,8.706,0.031,13.058
			c0.001,0.315,0.039,0.605,0.09,0.886h8.824c0.05-0.281,0.087-0.571,0.086-0.886C61.324,20.885,61.307,13.158,61.287,5.431z"/>
		<path fill="#00C5AC" d="M8.785,29.549c0.061-0.006,0.119-0.018,0.184-0.018c0.022,0,0.041,0.005,0.063,0.006
			c0.021-0.001,0.04-0.006,0.062-0.006c0.058,0,0.109,0.011,0.164,0.016C9.355,29.526,9.45,29.5,9.562,29.5H4.762
			c0.003,0.014,0.008,0.025,0.012,0.039c1.273,0.013,2.547,0.037,3.82-0.007C8.663,29.529,8.723,29.541,8.785,29.549z"/>
		<path fill="#00C5AC" d="M60.146,29.548c0.056-0.005,0.107-0.017,0.167-0.017c0.093,0,0.178,0.013,0.262,0.026
			c0.009-0.001,0.019-0.001,0.027-0.003c0.233-0.055,0.45-0.059,0.647-0.021c0.003-0.011,0.006-0.021,0.008-0.032h-4.038
			c0.928-0.022,1.854,0.054,2.781,0.031C60.053,29.53,60.097,29.543,60.146,29.548z"/>
	</g>
</g>
<g>
	<g>
		<path fill="#F15A24" d="M55.843,61.792c5.804,0,5.804-9,0-9S50.04,61.792,55.843,61.792L55.843,61.792z"/>
	</g>
</g>
<g>
	<g>
		<path fill="#F15A24" d="M55.843,61.792c5.804,0,5.804-9,0-9S50.04,61.792,55.843,61.792L55.843,61.792z"/>
	</g>
</g>
<g>
	<g>
		<path fill="#F15A24" d="M59.797,54.879c-2.553-2.421-5.105-4.842-7.658-7.263c-0.008,3.482-0.016,6.964-0.023,10.446
			C54.676,57,57.236,55.941,59.797,54.879z"/>
		<path fill="#F15A24" d="M13.599,58.062c-0.015-3.447-0.029-6.894-0.043-10.34c-2.546,2.386-5.093,4.771-7.639,7.157
			C8.478,55.941,11.039,57.002,13.599,58.062z"/>
		<path fill="#F15A24" d="M29.817,38.85c1.055,1,2.109,2,3.164,3c1.067-1,2.134-2,3.201-3C34.061,38.85,31.938,38.85,29.817,38.85z"
			/>
		<path fill="#F15A24" d="M60.787,33.164c-0.313-0.014-0.626-0.025-0.94-0.042c-2.402,0.079-4.863-0.052-7.245-0.058
			c-0.264,0.553-0.433,1.188-0.435,1.936c-0.009,4.205-0.019,8.411-0.028,12.616l7.658,7.263c-2.561,1.062-5.121,2.121-7.682,3.184
			c0.008-3.482,0.016-6.964,0.023-10.446c-5.071-4.809-10.143-9.618-15.215-14.428c-2.403,0.032-4.805,0.084-7.203-0.085
			c-0.072,0.009-0.143,0.021-0.221,0.021c-0.118,0-0.228-0.012-0.332-0.033c-5.204,4.877-10.408,9.754-15.613,14.631
			c0.014,3.446,0.028,6.893,0.043,10.34c-2.56-1.061-5.121-2.121-7.682-3.183c2.546-2.386,5.092-4.771,7.639-7.157
			c-0.019-4.408-0.037-8.815-0.056-13.223c-0.002-0.513-0.1-0.959-0.235-1.377c-0.128-0.001-0.246-0.017-0.357-0.042
			c-2.717,0.16-5.451,0.033-8.174-0.003C4.596,33.508,4.498,33.97,4.5,34.5c0.033,7.854,0.066,15.708,0.099,23.562
			c0.017,4.014,4.846,5.838,7.682,3.182c6.899-6.465,13.799-12.93,20.699-19.395c-1.055-1-2.109-2-3.164-3h6.365
			c-1.067,1-2.134,2-3.201,3c6.818,6.465,13.637,12.93,20.453,19.395c2.821,2.677,7.672,0.816,7.682-3.182
			C61.132,50.374,61.15,42.688,61.167,35C61.169,34.297,61.021,33.694,60.787,33.164z"/>
	</g>
</g>
<path fill="none" stroke="#00C5AC" stroke-miterlimit="10" d="M89,31.5"/>
<path fill="none" stroke="#00C5AC" stroke-miterlimit="10" d="M-12,31.5"/>
<path fill="none" d="M63.95,32.875c-0.122,0.106-0.267,0.191-0.433,0.25H73v-0.25H63.95z"/>
<path fill="none" d="M40.521,33.125h15.79c-1.301-0.025-2.599-0.062-3.873-0.062c-0.307,0-0.557-0.073-0.765-0.188H41.005
	C40.87,32.987,40.709,33.072,40.521,33.125z"/>
<path fill="none" d="M28.938,33.094c-0.312,0-0.568-0.084-0.78-0.215c-0.004-0.002-0.009-0.002-0.013-0.004H14.12
	c-0.221,0.153-0.498,0.25-0.839,0.25H29.5c-0.13,0-0.243-0.025-0.354-0.052C29.078,33.082,29.012,33.094,28.938,33.094z"/>
<path fill="none" d="M3.594,33.062c-0.29,0-0.531-0.073-0.733-0.188h-8.735v0.25H7.389C6.123,33.096,4.856,33.062,3.594,33.062z"/>
<path fill="none" d="M51.673,32.875c-0.049-0.026-0.1-0.052-0.143-0.083c-0.01,0-0.021-0.001-0.03,0
	c-1.916,0.092-1.923-2.847-0.052-2.992c0.026-0.017,0.052-0.035,0.08-0.05H37.979c0.026,0.015,0.05,0.034,0.074,0.051
	c0.381,0.023,0.681,0.164,0.9,0.376c0.37,0.001,0.739,0.003,1.108,0.01c1.535,0.031,1.848,1.928,0.942,2.688H51.673z"/>
<path fill="none" d="M14.208,32.834c-0.009,0-0.019,0-0.028,0c-0.019,0.015-0.041,0.027-0.061,0.041h14.024
	c-0.094-0.046-0.181-0.099-0.26-0.16c-0.208-0.033-0.396-0.092-0.548-0.192c-1.217-0.399-1.579-2.305-0.257-2.772H14.694
	c0.125,0.095,0.233,0.213,0.327,0.342C16.08,30.826,15.815,32.88,14.208,32.834z"/>
<path fill="none" d="M2.726,32.795c-1.568-0.342-1.449-2.957,0.357-2.961h0.002c0.039-0.031,0.082-0.057,0.124-0.083h-9.085v3.125
	H2.86C2.814,32.85,2.767,32.825,2.726,32.795z"/>
<path fill="none" d="M62.666,29.75c0.174,0.121,0.303,0.288,0.396,0.475c1.477,0.044,1.771,1.875,0.889,2.65H73V29.75H62.666z"/>
</svg>
