<?xml version="1.0" encoding="utf-8"?>
<!-- Generator: Adobe Illustrator 16.0.0, SVG Export Plug-In . SVG Version: 6.00 Build 0)  -->
<!DOCTYPE svg PUBLIC "-//W3C//DTD SVG 1.1//EN" "http://www.w3.org/Graphics/SVG/1.1/DTD/svg11.dtd">
<svg version="1.1" id="Layer_1" xmlns="http://www.w3.org/2000/svg" xmlns:xlink="http://www.w3.org/1999/xlink" x="0px" y="0px"
	 width="100px" height="45px" viewBox="0 0 100 45" enable-background="new 0 0 100 45" xml:space="preserve">
<g>
	<g>
		<path fill="#00C5AC" d="M8.057,20.155c0.023-5.11,0.046-10.22,0.069-15.331C6.424,5.53,4.723,6.234,3.021,6.939
			c5.257,4.778,10.513,9.557,15.768,14.334c1.25,1.137,2.978,1.135,4.23,0c5.269-4.778,10.538-9.556,15.808-14.334
			c-1.702-0.705-3.404-1.41-5.105-2.114c0.014,5.136,0.025,10.271,0.037,15.406c0.01,3.855,5.99,3.857,5.98,0
			c-0.012-5.136-0.023-10.271-0.037-15.406c-0.006-2.701-3.207-3.835-5.104-2.115c-5.27,4.778-10.539,9.556-15.809,14.334
			c1.411,0,2.821,0,4.23,0C17.762,12.267,12.505,7.489,7.25,2.71C5.352,0.984,2.158,2.128,2.145,4.825
			c-0.023,5.11-0.046,10.221-0.069,15.331C2.059,24.014,8.04,24.012,8.057,20.155L8.057,20.155z"/>
	</g>
</g>
<g>
	<g>
		<path fill="#F15A24" d="M36.084,42.279c3.856,0,3.856-5.981,0-5.981C32.227,36.298,32.228,42.279,36.084,42.279L36.084,42.279z"/>
	</g>
</g>
<g>
	<g>
		<path fill="#F15A24" d="M36.084,42.279c3.856,0,3.856-5.981,0-5.981C32.227,36.298,32.228,42.279,36.084,42.279L36.084,42.279z"/>
	</g>
</g>
<g>
	<g>
		<path fill="#FF6633" d="M33.641,24.475c-0.01,5.108-0.023,10.218-0.033,15.326c1.701-0.705,3.402-1.41,5.104-2.115
			c-5.23-4.961-10.462-9.921-15.692-14.882c-1.211-1.149-3.017-1.136-4.229,0c-5.294,4.961-10.589,9.921-15.883,14.882
			c1.702,0.705,3.404,1.41,5.105,2.115c-0.023-5.22-0.044-10.439-0.066-15.658c-0.016-3.856-5.997-3.857-5.981,0
			c0.022,5.219,0.044,10.438,0.066,15.658c0.011,2.667,3.22,3.879,5.105,2.114c5.294-4.961,10.588-9.921,15.883-14.882
			c-1.409,0-2.819,0-4.229,0c5.231,4.961,10.462,9.921,15.693,14.882c1.876,1.778,5.099,0.542,5.105-2.114
			c0.011-5.109,0.023-10.218,0.034-15.326C39.631,20.617,33.649,20.619,33.641,24.475L33.641,24.475z"/>
	</g>
</g>
<path fill="none" stroke="#00C5AC" stroke-miterlimit="10" d="M-18,22.149"/>
<line fill="none" stroke="#FFFFFF" stroke-width="3" stroke-miterlimit="10" x1="-3.019" y1="22.149" x2="47.485" y2="22.149"/>
<rect x="46.667" y="6" fill="none" width="70.333" height="18"/>
<text transform="matrix(1 0 0 1 46.6665 18.8516)" fill="#00C7AF" font-family="'HelveticaNeue-Thin'" font-size="18">mentor</text>
<rect x="47.667" y="23.5" fill="none" width="70.333" height="18"/>
<text transform="matrix(1 0 0 1 47.6665 36.3516)" fill="#FF6633" font-family="'HelveticaNeue-Thin'" font-size="18">weekly</text>
<line fill="none" stroke="#FFFFFF" stroke-width="3" stroke-miterlimit="10" x1="-78" y1="23.5" x2="-32" y2="23.5"/>
</svg>
