<?xml version="1.0" encoding="utf-8"?>
<!-- Generator: Adobe Illustrator 16.0.0, SVG Export Plug-In . SVG Version: 6.00 Build 0)  -->
<!DOCTYPE svg PUBLIC "-//W3C//DTD SVG 1.1//EN" "http://www.w3.org/Graphics/SVG/1.1/DTD/svg11.dtd">
<svg version="1.1" id="Layer_1" xmlns="http://www.w3.org/2000/svg" xmlns:xlink="http://www.w3.org/1999/xlink" x="0px" y="0px"
	 width="64px" height="64px" viewBox="0 0 64 64" enable-background="new 0 0 64 64" xml:space="preserve">
<path fill="none" stroke="#000000" stroke-miterlimit="10" d="M32.5,149"/>
<line fill="none" stroke="#000000" stroke-miterlimit="10" x1="116.5" y1="-1" x2="116.5" y2="150"/>
<line fill="none" stroke="#000000" stroke-miterlimit="10" x1="-4" y1="116.5" x2="152" y2="116.5"/>
<g>
	<g>
		<path fill="#00C5AC" d="M13.667,28.5c0.035-7.69,0.07-15.38,0.104-23.07C11.211,6.491,8.65,7.552,6.089,8.613
			c7.91,7.19,15.819,14.38,23.728,21.57c1.882,1.711,4.481,1.707,6.364,0c7.929-7.19,15.858-14.38,23.788-21.57
			c-2.561-1.061-5.122-2.122-7.682-3.182c0.019,7.728,0.037,15.456,0.056,23.183c0.014,5.803,9.014,5.805,9,0
			c-0.019-7.728-0.037-15.456-0.056-23.183c-0.01-4.065-4.827-5.771-7.682-3.182c-7.929,7.19-15.858,14.38-23.788,21.57
			c2.122,0,4.243,0,6.364,0c-7.91-7.19-15.819-14.38-23.728-21.57C9.596-0.349,4.79,1.373,4.771,5.431
			c-0.035,7.69-0.07,15.38-0.104,23.07C4.641,34.306,13.641,34.303,13.667,28.5L13.667,28.5z"/>
	</g>
</g>
<g>
	<g>
		<path fill="#F15A24" d="M55.843,61.792c5.804,0,5.804-9,0-9S50.04,61.792,55.843,61.792L55.843,61.792z"/>
	</g>
</g>
<g>
	<g>
		<path fill="#F15A24" d="M55.843,61.792c5.804,0,5.804-9,0-9S50.04,61.792,55.843,61.792L55.843,61.792z"/>
	</g>
</g>
<g>
	<g>
		<path fill="#F15A24" d="M52.167,35c-0.017,7.688-0.035,15.375-0.052,23.062c2.561-1.061,5.121-2.121,7.682-3.182
			c-7.872-7.465-15.744-14.93-23.615-22.395c-1.823-1.729-4.539-1.71-6.364,0c-7.967,7.465-15.934,14.93-23.901,22.395
			c2.561,1.061,5.122,2.122,7.682,3.182C13.565,50.208,13.533,42.354,13.5,34.5c-0.024-5.803-9.024-5.805-9,0
			c0.033,7.854,0.066,15.708,0.099,23.562c0.017,4.014,4.846,5.839,7.682,3.182c7.967-7.465,15.934-14.93,23.901-22.395
			c-2.122,0-4.243,0-6.364,0c7.872,7.465,15.744,14.93,23.615,22.395c2.823,2.677,7.673,0.817,7.682-3.182
			c0.017-7.688,0.035-15.375,0.052-23.062C61.18,29.196,52.18,29.197,52.167,35L52.167,35z"/>
	</g>
</g>
<path fill="none" stroke="#00C5AC" stroke-miterlimit="10" d="M89,31.5"/>
<path fill="none" stroke="#00C5AC" stroke-miterlimit="10" d="M-12,31.5"/>
<line fill="none" stroke="#FFFFFF" stroke-width="3" stroke-miterlimit="10" x1="-3" y1="31.5" x2="73" y2="31.5"/>
</svg>
